<svg xmlns="http://www.w3.org/2000/svg" xmlns:xlink="http://www.w3.org/1999/xlink" contentStyleType="text/css" data-diagram-type="ACTIVITY" height="502px" preserveAspectRatio="none" style="width:193px;height:502px;background:#FFFFFF;" version="1.1" viewBox="0 0 193 502" width="193px" zoomAndPan="magnify"><defs/><g><ellipse cx="96.5801" cy="20" fill="#222222" rx="10" ry="10" style="stroke:#222222;stroke-width:1;"/><rect fill="#F1F1F1" height="33.9688" rx="12.5" ry="12.5" style="stroke:#181818;stroke-width:0.5;" width="127.9004" x="32.6299" y="50"/><text fill="#000000" font-family="sans-serif" font-size="12" lengthAdjust="spacing" textLength="107.9004" x="42.6299" y="71.1387">Social Media Data</text><rect fill="#F1F1F1" height="47.9375" rx="12.5" ry="12.5" style="stroke:#181818;stroke-width:0.5;" width="136.9531" x="28.1035" y="103.9688"/><text fill="#000000" font-family="sans-serif" font-size="12" lengthAdjust="spacing" textLength="116.9531" x="38.1035" y="125.1074">Data Preprocessing</text><text fill="#000000" font-family="sans-serif" font-size="12" lengthAdjust="spacing" textLength="65.7832" x="38.1035" y="139.0762">&amp; Cleaning</text><rect fill="#F1F1F1" height="47.9375" rx="12.5" ry="12.5" style="stroke:#181818;stroke-width:0.5;" width="142.0801" x="25.54" y="171.9063"/><text fill="#000000" font-family="sans-serif" font-size="12" lengthAdjust="spacing" textLength="122.0801" x="35.54" y="193.0449">Feature Engineering</text><text fill="#000000" font-family="sans-serif" font-size="12" lengthAdjust="spacing" textLength="74.4316" x="35.54" y="207.0137">&amp; Extraction</text><rect fill="#F1F1F1" height="33.9688" rx="12.5" ry="12.5" style="stroke:#181818;stroke-width:0.5;" width="115.1445" x="39.0078" y="239.8438"/><text fill="#000000" font-family="sans-serif" font-size="12" lengthAdjust="spacing" textLength="95.1445" x="49.0078" y="260.9824">Model Selection</text><rect fill="#F1F1F1" height="33.9688" rx="12.5" ry="12.5" style="stroke:#181818;stroke-width:0.5;" width="108.957" x="42.1016" y="293.8125"/><text fill="#000000" font-family="sans-serif" font-size="12" lengthAdjust="spacing" textLength="88.957" x="52.1016" y="314.9512">Model Training</text><rect fill="#F1F1F1" height="47.9375" rx="12.5" ry="12.5" style="stroke:#181818;stroke-width:0.5;" width="123.1602" x="35" y="347.7813"/><text fill="#000000" font-family="sans-serif" font-size="12" lengthAdjust="spacing" textLength="103.1602" x="45" y="368.9199">Model Evaluation</text><text fill="#000000" font-family="sans-serif" font-size="12" lengthAdjust="spacing" textLength="73.3594" x="45" y="382.8887">&amp; Validation</text><rect fill="#F1F1F1" height="33.9688" rx="12.5" ry="12.5" style="stroke:#181818;stroke-width:0.5;" width="171.1602" x="11" y="415.7188"/><text fill="#000000" font-family="sans-serif" font-size="12" lengthAdjust="spacing" textLength="151.1602" x="21" y="436.8574">Prediction / Classification</text><ellipse cx="96.5801" cy="480.6875" fill="none" rx="11" ry="11" style="stroke:#222222;stroke-width:1;"/><ellipse cx="96.5801" cy="480.6875" fill="#222222" rx="6" ry="6" style="stroke:#222222;stroke-width:1;"/><line style="stroke:#181818;stroke-width:1;" x1="96.5801" x2="96.5801" y1="30" y2="50"/><polygon fill="#181818" points="92.5801,40,96.5801,50,100.5801,40,96.5801,44" style="stroke:#181818;stroke-width:1;"/><line style="stroke:#181818;stroke-width:1;" x1="96.5801" x2="96.5801" y1="83.9688" y2="103.9688"/><polygon fill="#181818" points="92.5801,93.9688,96.5801,103.9688,100.5801,93.9688,96.5801,97.9688" style="stroke:#181818;stroke-width:1;"/><line style="stroke:#181818;stroke-width:1;" x1="96.5801" x2="96.5801" y1="151.9063" y2="171.9063"/><polygon fill="#181818" points="92.5801,161.9063,96.5801,171.9063,100.5801,161.9063,96.5801,165.9063" style="stroke:#181818;stroke-width:1;"/><line style="stroke:#181818;stroke-width:1;" x1="96.5801" x2="96.5801" y1="219.8438" y2="239.8438"/><polygon fill="#181818" points="92.5801,229.8438,96.5801,239.8438,100.5801,229.8438,96.5801,233.8438" style="stroke:#181818;stroke-width:1;"/><line style="stroke:#181818;stroke-width:1;" x1="96.5801" x2="96.5801" y1="273.8125" y2="293.8125"/><polygon fill="#181818" points="92.5801,283.8125,96.5801,293.8125,100.5801,283.8125,96.5801,287.8125" style="stroke:#181818;stroke-width:1;"/><line style="stroke:#181818;stroke-width:1;" x1="96.5801" x2="96.5801" y1="327.7813" y2="347.7813"/><polygon fill="#181818" points="92.5801,337.7813,96.5801,347.7813,100.5801,337.7813,96.5801,341.7813" style="stroke:#181818;stroke-width:1;"/><line style="stroke:#181818;stroke-width:1;" x1="96.5801" x2="96.5801" y1="395.7188" y2="415.7188"/><polygon fill="#181818" points="92.5801,405.7188,96.5801,415.7188,100.5801,405.7188,96.5801,409.7188" style="stroke:#181818;stroke-width:1;"/><line style="stroke:#181818;stroke-width:1;" x1="96.5801" x2="96.5801" y1="449.6875" y2="469.6875"/><polygon fill="#181818" points="92.5801,459.6875,96.5801,469.6875,100.5801,459.6875,96.5801,463.6875" style="stroke:#181818;stroke-width:1;"/><!--SRC=[LOwn3i8m34JtVeKdLlOoGjWg8HKniPmIKrcAaifnApwV1B8msJg_Eryng0tZdBqWqiH1G1SOJiFO1jsKLysUIv6qFDE1pf6Hwbw1AyCsPN9faSIidN1lKtYJd2epvS2HPexyhzmLqcD-WjiHDpIcPJmG9Q0xQeSWNpiTwt_KBY_n_JeKo-i7]--></g></svg>