<svg xmlns="http://www.w3.org/2000/svg" xmlns:xlink="http://www.w3.org/1999/xlink" contentStyleType="text/css" data-diagram-type="ACTIVITY" height="722px" preserveAspectRatio="none" style="width:426px;height:722px;background:#FFFFFF;" version="1.1" viewBox="0 0 426 722" width="426px" zoomAndPan="magnify"><defs/><g><rect fill="none" height="20.9531" style="stroke:none;stroke-width:1;" width="393.3726" x="15" y="12.7451"/><ellipse cx="106.5801" cy="48.6982" fill="#222222" rx="10" ry="10" style="stroke:#222222;stroke-width:1;"/><rect fill="#F1F1F1" height="33.9688" rx="12.5" ry="12.5" style="stroke:#181818;stroke-width:0.5;" width="127.9004" x="42.6299" y="78.6982"/><text fill="#000000" font-family="sans-serif" font-size="12" lengthAdjust="spacing" textLength="107.9004" x="52.6299" y="99.8369">Social Media Data</text><rect fill="#F1F1F1" height="47.9375" rx="12.5" ry="12.5" style="stroke:#181818;stroke-width:0.5;" width="136.9531" x="38.1035" y="132.667"/><text fill="#000000" font-family="sans-serif" font-size="12" lengthAdjust="spacing" textLength="116.9531" x="48.1035" y="153.8057">Data Preprocessing</text><text fill="#000000" font-family="sans-serif" font-size="12" lengthAdjust="spacing" textLength="65.7832" x="48.1035" y="167.7744">&amp; Cleaning</text><rect fill="#F1F1F1" height="47.9375" rx="12.5" ry="12.5" style="stroke:#181818;stroke-width:0.5;" width="142.0801" x="35.54" y="200.6045"/><text fill="#000000" font-family="sans-serif" font-size="12" lengthAdjust="spacing" textLength="122.0801" x="45.54" y="221.7432">Feature Engineering</text><text fill="#000000" font-family="sans-serif" font-size="12" lengthAdjust="spacing" textLength="74.4316" x="45.54" y="235.7119">&amp; Extraction</text><rect fill="#F1F1F1" height="33.9688" rx="12.5" ry="12.5" style="stroke:#181818;stroke-width:0.5;" width="115.1445" x="49.0078" y="268.542"/><text fill="#000000" font-family="sans-serif" font-size="12" lengthAdjust="spacing" textLength="95.1445" x="59.0078" y="289.6807">Model Selection</text><rect fill="#F1F1F1" height="33.9688" rx="12.5" ry="12.5" style="stroke:#181818;stroke-width:0.5;" width="108.957" x="52.1016" y="322.5107"/><text fill="#000000" font-family="sans-serif" font-size="12" lengthAdjust="spacing" textLength="88.957" x="62.1016" y="343.6494">Model Training</text><rect fill="#F1F1F1" height="47.9375" rx="12.5" ry="12.5" style="stroke:#181818;stroke-width:0.5;" width="123.1602" x="45" y="376.4795"/><text fill="#000000" font-family="sans-serif" font-size="12" lengthAdjust="spacing" textLength="103.1602" x="55" y="397.6182">Model Evaluation</text><text fill="#000000" font-family="sans-serif" font-size="12" lengthAdjust="spacing" textLength="73.3594" x="55" y="411.5869">&amp; Validation</text><rect fill="#F1F1F1" height="33.9688" rx="12.5" ry="12.5" style="stroke:#181818;stroke-width:0.5;" width="171.1602" x="21" y="444.417"/><text fill="#000000" font-family="sans-serif" font-size="12" lengthAdjust="spacing" textLength="151.1602" x="31" y="465.5557">Prediction / Classification</text><line style="stroke:#000000;stroke-width:1.5;" x1="15" x2="15" y1="12.7451" y2="710.2295"/><rect fill="#F1F1F1" height="33.9688" rx="12.5" ry="12.5" style="stroke:#181818;stroke-width:0.5;" width="200.3516" x="202.1602" y="498.3857"/><text fill="#000000" font-family="sans-serif" font-size="12" lengthAdjust="spacing" textLength="180.3516" x="212.1602" y="519.5244">Select single instances of text</text><rect fill="#F1F1F1" height="47.9375" rx="12.5" ry="12.5" style="stroke:#181818;stroke-width:0.5;" width="197.3457" x="203.6631" y="552.3545"/><text fill="#000000" font-family="sans-serif" font-size="12" lengthAdjust="spacing" textLength="118.3242" x="244.1787" y="573.4932">Explainable AI (XAI)</text><text fill="#000000" font-family="sans-serif" font-size="12" lengthAdjust="spacing" textLength="177.3457" x="213.6631" y="587.4619">Post-hoc Methods Application</text><rect fill="#F1F1F1" height="47.9375" rx="12.5" ry="12.5" style="stroke:#181818;stroke-width:0.5;" width="112.5078" x="246.082" y="620.292"/><text fill="#000000" font-family="sans-serif" font-size="12" lengthAdjust="spacing" textLength="65.4668" x="256.082" y="641.4307">XAI Output</text><text fill="#000000" font-family="sans-serif" font-size="12" lengthAdjust="spacing" textLength="92.5078" x="256.082" y="655.3994">(Interpretation)</text><ellipse cx="302.3359" cy="699.2295" fill="none" rx="11" ry="11" style="stroke:#222222;stroke-width:1;"/><ellipse cx="302.3359" cy="699.2295" fill="#222222" rx="6" ry="6" style="stroke:#222222;stroke-width:1;"/><line style="stroke:#000000;stroke-width:1.5;" x1="196.1602" x2="196.1602" y1="12.7451" y2="710.2295"/><line style="stroke:#000000;stroke-width:1.5;" x1="406.5117" x2="406.5117" y1="12.7451" y2="710.2295"/><line style="stroke:#181818;stroke-width:1;" x1="106.5801" x2="106.5801" y1="58.6982" y2="78.6982"/><polygon fill="#181818" points="102.5801,68.6982,106.5801,78.6982,110.5801,68.6982,106.5801,72.6982" style="stroke:#181818;stroke-width:1;"/><line style="stroke:#181818;stroke-width:1;" x1="106.5801" x2="106.5801" y1="112.667" y2="132.667"/><polygon fill="#181818" points="102.5801,122.667,106.5801,132.667,110.5801,122.667,106.5801,126.667" style="stroke:#181818;stroke-width:1;"/><line style="stroke:#181818;stroke-width:1;" x1="106.5801" x2="106.5801" y1="180.6045" y2="200.6045"/><polygon fill="#181818" points="102.5801,190.6045,106.5801,200.6045,110.5801,190.6045,106.5801,194.6045" style="stroke:#181818;stroke-width:1;"/><line style="stroke:#181818;stroke-width:1;" x1="106.5801" x2="106.5801" y1="248.542" y2="268.542"/><polygon fill="#181818" points="102.5801,258.542,106.5801,268.542,110.5801,258.542,106.5801,262.542" style="stroke:#181818;stroke-width:1;"/><line style="stroke:#181818;stroke-width:1;" x1="106.5801" x2="106.5801" y1="302.5107" y2="322.5107"/><polygon fill="#181818" points="102.5801,312.5107,106.5801,322.5107,110.5801,312.5107,106.5801,316.5107" style="stroke:#181818;stroke-width:1;"/><line style="stroke:#181818;stroke-width:1;" x1="106.5801" x2="106.5801" y1="356.4795" y2="376.4795"/><polygon fill="#181818" points="102.5801,366.4795,106.5801,376.4795,110.5801,366.4795,106.5801,370.4795" style="stroke:#181818;stroke-width:1;"/><line style="stroke:#181818;stroke-width:1;" x1="106.5801" x2="106.5801" y1="424.417" y2="444.417"/><polygon fill="#181818" points="102.5801,434.417,106.5801,444.417,110.5801,434.417,106.5801,438.417" style="stroke:#181818;stroke-width:1;"/><line style="stroke:#181818;stroke-width:1;" x1="302.3359" x2="302.3359" y1="532.3545" y2="552.3545"/><polygon fill="#181818" points="298.3359,542.3545,302.3359,552.3545,306.3359,542.3545,302.3359,546.3545" style="stroke:#181818;stroke-width:1;"/><line style="stroke:#181818;stroke-width:1;" x1="302.3359" x2="302.3359" y1="600.292" y2="620.292"/><polygon fill="#181818" points="298.3359,610.292,302.3359,620.292,306.3359,610.292,302.3359,614.292" style="stroke:#181818;stroke-width:1;"/><line style="stroke:#181818;stroke-width:1;" x1="302.3359" x2="302.3359" y1="668.2295" y2="688.2295"/><polygon fill="#181818" points="298.3359,678.2295,302.3359,688.2295,306.3359,678.2295,302.3359,682.2295" style="stroke:#181818;stroke-width:1;"/><line style="stroke:#181818;stroke-width:1;" x1="106.5801" x2="106.5801" y1="478.3857" y2="483.3857"/><line style="stroke:#181818;stroke-width:1;" x1="106.5801" x2="302.3359" y1="483.3857" y2="483.3857"/><line style="stroke:#181818;stroke-width:1;" x1="302.3359" x2="302.3359" y1="483.3857" y2="498.3857"/><polygon fill="#181818" points="298.3359,488.3857,302.3359,498.3857,306.3359,488.3857,302.3359,492.3857" style="stroke:#181818;stroke-width:1;"/><text fill="#000000" font-family="sans-serif" font-size="18" lengthAdjust="spacing" textLength="124.6553" x="43.2524" y="29.4531">ML/DL Models</text><text fill="#000000" font-family="sans-serif" font-size="18" lengthAdjust="spacing" textLength="112.5615" x="245.0552" y="29.4531">XAI Methods</text><!--SRC=[LOzDQyCm38Rl-HKwZVOmUizEPSsWqD12ozWX5yrHMu6HZQsC7FBZAwVPO2SRwVruDBM7pUu0RUZ9vwdAYach-XmSeuUMUaROeU9RLPS7JebY2evoPhbryWBldb3iRu8FGXqIGICt5gAqA9fH4phb8AQPU-1CdlvFBWbvYNaEcX_q0nPDoVX4ppqk3cFeURR3nlhHMAxibcqrVMtt1gxtqDizzRCA2gudOB43nV0XN45fL8lhj1cZjthyDeMPLvQmxkGKihxUW_iDWssC_g-dBZN7GUEWdQpsefHY8fstQyF86k83]--></g></svg>