<svg xmlns="http://www.w3.org/2000/svg" xmlns:xlink="http://www.w3.org/1999/xlink" contentStyleType="text/css" data-diagram-type="ACTIVITY" height="722px" preserveAspectRatio="none" style="width:423px;height:722px;background:#FFFFFF;" version="1.1" viewBox="0 0 423 722" width="423px" zoomAndPan="magnify"><defs/><g><rect fill="none" height="20.9531" style="stroke:none;stroke-width:1;" width="390.3667" x="15" y="12.7451"/><ellipse cx="106.5801" cy="48.6982" fill="#222222" rx="10" ry="10" style="stroke:#222222;stroke-width:1;"/><rect fill="#F1F1F1" height="33.9688" rx="12.5" ry="12.5" style="stroke:#181818;stroke-width:0.5;" width="127.9004" x="42.6299" y="78.6982"/><text fill="#000000" font-family="sans-serif" font-size="12" lengthAdjust="spacing" textLength="107.9004" x="52.6299" y="99.8369">Social Media Data</text><rect fill="#F1F1F1" height="47.9375" rx="12.5" ry="12.5" style="stroke:#181818;stroke-width:0.5;" width="136.9531" x="38.1035" y="132.667"/><text fill="#000000" font-family="sans-serif" font-size="12" lengthAdjust="spacing" textLength="116.9531" x="48.1035" y="153.8057">Data Preprocessing</text><text fill="#000000" font-family="sans-serif" font-size="12" lengthAdjust="spacing" textLength="65.7832" x="48.1035" y="167.7744">&amp; Cleaning</text><rect fill="#F1F1F1" height="47.9375" rx="12.5" ry="12.5" style="stroke:#181818;stroke-width:0.5;" width="142.0801" x="35.54" y="200.6045"/><text fill="#000000" font-family="sans-serif" font-size="12" lengthAdjust="spacing" textLength="122.0801" x="45.54" y="221.7432">Feature Engineering</text><text fill="#000000" font-family="sans-serif" font-size="12" lengthAdjust="spacing" textLength="74.4316" x="45.54" y="235.7119">&amp; Extraction</text><rect fill="#F1F1F1" height="33.9688" rx="12.5" ry="12.5" style="stroke:#181818;stroke-width:0.5;" width="115.1445" x="49.0078" y="268.542"/><text fill="#000000" font-family="sans-serif" font-size="12" lengthAdjust="spacing" textLength="95.1445" x="59.0078" y="289.6807">Model Selection</text><rect fill="#F1F1F1" height="33.9688" rx="12.5" ry="12.5" style="stroke:#181818;stroke-width:0.5;" width="108.957" x="52.1016" y="322.5107"/><text fill="#000000" font-family="sans-serif" font-size="12" lengthAdjust="spacing" textLength="88.957" x="62.1016" y="343.6494">Model Training</text><rect fill="#F1F1F1" height="47.9375" rx="12.5" ry="12.5" style="stroke:#181818;stroke-width:0.5;" width="123.1602" x="45" y="376.4795"/><text fill="#000000" font-family="sans-serif" font-size="12" lengthAdjust="spacing" textLength="103.1602" x="55" y="397.6182">Model Evaluation</text><text fill="#000000" font-family="sans-serif" font-size="12" lengthAdjust="spacing" textLength="73.3594" x="55" y="411.5869">&amp; Validation</text><rect fill="#F1F1F1" height="33.9688" rx="12.5" ry="12.5" style="stroke:#181818;stroke-width:0.5;" width="171.1602" x="21" y="444.417"/><text fill="#000000" font-family="sans-serif" font-size="12" lengthAdjust="spacing" textLength="151.1602" x="31" y="465.5557">Prediction / Classification</text><line style="stroke:#000000;stroke-width:1.5;" x1="15" x2="15" y1="12.7451" y2="710.2295"/><rect fill="#F1F1F1" height="47.9375" rx="12.5" ry="12.5" style="stroke:#181818;stroke-width:0.5;" width="197.3457" x="202.1602" y="498.3857"/><text fill="#000000" font-family="sans-serif" font-size="12" lengthAdjust="spacing" textLength="118.3242" x="242.6758" y="519.5244">Explainable AI (XAI)</text><text fill="#000000" font-family="sans-serif" font-size="12" lengthAdjust="spacing" textLength="177.3457" x="212.1602" y="533.4932">Post-hoc Methods Application</text><rect fill="#F1F1F1" height="33.9688" rx="12.5" ry="12.5" style="stroke:#181818;stroke-width:0.5;" width="113.3516" x="244.1572" y="566.3232"/><text fill="#000000" font-family="sans-serif" font-size="12" lengthAdjust="spacing" textLength="93.3516" x="254.1572" y="587.4619">XAI Evaluations</text><rect fill="#F1F1F1" height="47.9375" rx="12.5" ry="12.5" style="stroke:#181818;stroke-width:0.5;" width="112.5078" x="244.5791" y="620.292"/><text fill="#000000" font-family="sans-serif" font-size="12" lengthAdjust="spacing" textLength="65.4668" x="254.5791" y="641.4307">XAI Output</text><text fill="#000000" font-family="sans-serif" font-size="12" lengthAdjust="spacing" textLength="92.5078" x="254.5791" y="655.3994">(Interpretation)</text><ellipse cx="300.833" cy="699.2295" fill="none" rx="11" ry="11" style="stroke:#222222;stroke-width:1;"/><ellipse cx="300.833" cy="699.2295" fill="#222222" rx="6" ry="6" style="stroke:#222222;stroke-width:1;"/><line style="stroke:#000000;stroke-width:1.5;" x1="196.1602" x2="196.1602" y1="12.7451" y2="710.2295"/><line style="stroke:#000000;stroke-width:1.5;" x1="403.5059" x2="403.5059" y1="12.7451" y2="710.2295"/><line style="stroke:#181818;stroke-width:1;" x1="106.5801" x2="106.5801" y1="58.6982" y2="78.6982"/><polygon fill="#181818" points="102.5801,68.6982,106.5801,78.6982,110.5801,68.6982,106.5801,72.6982" style="stroke:#181818;stroke-width:1;"/><line style="stroke:#181818;stroke-width:1;" x1="106.5801" x2="106.5801" y1="112.667" y2="132.667"/><polygon fill="#181818" points="102.5801,122.667,106.5801,132.667,110.5801,122.667,106.5801,126.667" style="stroke:#181818;stroke-width:1;"/><line style="stroke:#181818;stroke-width:1;" x1="106.5801" x2="106.5801" y1="180.6045" y2="200.6045"/><polygon fill="#181818" points="102.5801,190.6045,106.5801,200.6045,110.5801,190.6045,106.5801,194.6045" style="stroke:#181818;stroke-width:1;"/><line style="stroke:#181818;stroke-width:1;" x1="106.5801" x2="106.5801" y1="248.542" y2="268.542"/><polygon fill="#181818" points="102.5801,258.542,106.5801,268.542,110.5801,258.542,106.5801,262.542" style="stroke:#181818;stroke-width:1;"/><line style="stroke:#181818;stroke-width:1;" x1="106.5801" x2="106.5801" y1="302.5107" y2="322.5107"/><polygon fill="#181818" points="102.5801,312.5107,106.5801,322.5107,110.5801,312.5107,106.5801,316.5107" style="stroke:#181818;stroke-width:1;"/><line style="stroke:#181818;stroke-width:1;" x1="106.5801" x2="106.5801" y1="356.4795" y2="376.4795"/><polygon fill="#181818" points="102.5801,366.4795,106.5801,376.4795,110.5801,366.4795,106.5801,370.4795" style="stroke:#181818;stroke-width:1;"/><line style="stroke:#181818;stroke-width:1;" x1="106.5801" x2="106.5801" y1="424.417" y2="444.417"/><polygon fill="#181818" points="102.5801,434.417,106.5801,444.417,110.5801,434.417,106.5801,438.417" style="stroke:#181818;stroke-width:1;"/><line style="stroke:#181818;stroke-width:1;" x1="300.833" x2="300.833" y1="546.3232" y2="566.3232"/><polygon fill="#181818" points="296.833,556.3232,300.833,566.3232,304.833,556.3232,300.833,560.3232" style="stroke:#181818;stroke-width:1;"/><line style="stroke:#181818;stroke-width:1;" x1="300.833" x2="300.833" y1="600.292" y2="620.292"/><polygon fill="#181818" points="296.833,610.292,300.833,620.292,304.833,610.292,300.833,614.292" style="stroke:#181818;stroke-width:1;"/><line style="stroke:#181818;stroke-width:1;" x1="300.833" x2="300.833" y1="668.2295" y2="688.2295"/><polygon fill="#181818" points="296.833,678.2295,300.833,688.2295,304.833,678.2295,300.833,682.2295" style="stroke:#181818;stroke-width:1;"/><line style="stroke:#181818;stroke-width:1;" x1="106.5801" x2="106.5801" y1="478.3857" y2="483.3857"/><line style="stroke:#181818;stroke-width:1;" x1="106.5801" x2="300.833" y1="483.3857" y2="483.3857"/><line style="stroke:#181818;stroke-width:1;" x1="300.833" x2="300.833" y1="483.3857" y2="498.3857"/><polygon fill="#181818" points="296.833,488.3857,300.833,498.3857,304.833,488.3857,300.833,492.3857" style="stroke:#181818;stroke-width:1;"/><text fill="#000000" font-family="sans-serif" font-size="18" lengthAdjust="spacing" textLength="124.6553" x="43.2524" y="29.4531">ML/DL Models</text><text fill="#000000" font-family="sans-serif" font-size="18" lengthAdjust="spacing" textLength="112.5615" x="243.5522" y="29.4531">XAI Methods</text><!--SRC=[LP11Qm8n48Nl-HLpAdeetjUJw1O45mMbUDZBD9dgG4X2CYiUziTtTfksz9JmtfjlNZ9sXzNk05rqvCjeJ17COffpj8mUEdACi4F1jMcc0qwPKewMIk5mwyCBR3rXqBi6tWXbo0Hjk74WoZNHFYMZ5Ov1C_CYE9Ed_yeb8rVCjz0-q0yuPIR6EtfsM2UqW-Dv75Qw7xNB9zlgcl6wsMjnkKUd3sfwQP_9Anm_F85Q2_MNVJZ58g_tQ7-Yi4d9_rAQ2V9NeLJbE4WQf0-BVH3AAPFCzdAj_nRJ5m00]--></g></svg>