<svg xmlns="http://www.w3.org/2000/svg" xmlns:xlink="http://www.w3.org/1999/xlink" contentStyleType="text/css" data-diagram-type="ACTIVITY" height="690px" preserveAspectRatio="none" style="width:482px;height:690px;background:#FFFFFF;" version="1.1" viewBox="0 0 482 690" width="482px" zoomAndPan="magnify"><title>Detrimental Content Detection and Classification Process</title><defs/><g><g class="title" data-source-line="1"><text fill="#000000" font-family="sans-serif" font-size="14" font-weight="bold" lengthAdjust="spacing" textLength="454.6309" x="10" y="22.9951">Detrimental Content Detection and Classification Process</text></g><ellipse cx="244.8154" cy="53.2969" fill="#222222" rx="10" ry="10" style="stroke:#222222;stroke-width:1;"/><rect fill="#F1F1F1" height="33.9688" rx="12.5" ry="12.5" style="stroke:#181818;stroke-width:0.5;" width="127.9004" x="180.8654" y="103.2969"/><text fill="#000000" font-family="sans-serif" font-size="12" lengthAdjust="spacing" textLength="107.9004" x="190.8654" y="124.4355">Social Media Data</text><rect fill="#F1F1F1" height="47.9375" rx="12.5" ry="12.5" style="stroke:#181818;stroke-width:0.5;" width="136.9531" x="176.3354" y="177.2669"/><text fill="#000000" font-family="sans-serif" font-size="12" lengthAdjust="spacing" textLength="116.9531" x="186.3354" y="198.4055">Data Preprocessing</text><text fill="#000000" font-family="sans-serif" font-size="12" lengthAdjust="spacing" textLength="65.7832" x="186.3354" y="212.3743">&amp; Cleaning</text><rect fill="#F1F1F1" height="47.9375" rx="12.5" ry="12.5" style="stroke:#181818;stroke-width:0.5;" width="142.0801" x="173.7754" y="265.2069"/><text fill="#000000" font-family="sans-serif" font-size="12" lengthAdjust="spacing" textLength="122.0801" x="183.7754" y="286.3455">Feature Engineering</text><text fill="#000000" font-family="sans-serif" font-size="12" lengthAdjust="spacing" textLength="74.4316" x="183.7754" y="300.3143">&amp; Extraction</text><rect fill="#F1F1F1" height="33.9688" rx="12.5" ry="12.5" style="stroke:#181818;stroke-width:0.5;" width="115.1445" x="187.2454" y="353.1469"/><text fill="#000000" font-family="sans-serif" font-size="12" lengthAdjust="spacing" textLength="95.1445" x="197.2454" y="374.2855">Model Selection</text><rect fill="#F1F1F1" height="33.9688" rx="12.5" ry="12.5" style="stroke:#181818;stroke-width:0.5;" width="108.957" x="190.3354" y="427.1069"/><text fill="#000000" font-family="sans-serif" font-size="12" lengthAdjust="spacing" textLength="88.957" x="200.3354" y="448.2455">Model Training</text><rect fill="#F1F1F1" height="47.9375" rx="12.5" ry="12.5" style="stroke:#181818;stroke-width:0.5;" width="123.1602" x="183.2354" y="501.0769"/><text fill="#000000" font-family="sans-serif" font-size="12" lengthAdjust="spacing" textLength="103.1602" x="193.2354" y="522.2155">Model Evaluation</text><text fill="#000000" font-family="sans-serif" font-size="12" lengthAdjust="spacing" textLength="73.3594" x="193.2354" y="536.1843">&amp; Validation</text><rect fill="#F1F1F1" height="33.9688" rx="12.5" ry="12.5" style="stroke:#181818;stroke-width:0.5;" width="171.1602" x="159.2354" y="589.0169"/><text fill="#000000" font-family="sans-serif" font-size="12" lengthAdjust="spacing" textLength="151.1602" x="169.2354" y="610.1555">Prediction / Classification</text><ellipse cx="244.8154" cy="673.9869" fill="none" rx="11" ry="11" style="stroke:#222222;stroke-width:1;"/><ellipse cx="244.8154" cy="673.9869" fill="#222222" rx="6" ry="6" style="stroke:#222222;stroke-width:1;"/><!--link start to Social Media Data--><g class="link" data-entity-1="start" data-entity-2="Social Media Data" data-source-line="3" data-uid="lnk4" id="link_start_Social Media Data"><path d="M244.8154,63.6069 C244.8154,73.8569 244.8154,84.5269 244.8154,96.9569" fill="none" id="start-to-Social Media Data" style="stroke:#181818;stroke-width:1;"/><polygon fill="#181818" points="244.8154,102.9569,248.8154,93.9569,244.8154,97.9569,240.8154,93.9569,244.8154,102.9569" style="stroke:#181818;stroke-width:1;"/></g><!--link Social Media Data to Data Preprocessing\n& Cleaning--><g class="link" data-entity-1="Social Media Data" data-entity-2="Data Preprocessing\n&amp; Cleaning" data-source-line="4" data-uid="lnk6" id="link_Social Media Data_Data Preprocessing\n&amp; Cleaning"><path d="M244.8154,137.6469 C244.8154,149.0269 244.8154,158.3669 244.8154,171.0169" fill="none" id="Social Media Data-to-Data Preprocessing\n&amp; Cleaning" style="stroke:#181818;stroke-width:1;"/><polygon fill="#181818" points="244.8154,177.0169,248.8154,168.0169,244.8154,172.0169,240.8154,168.0169,244.8154,177.0169" style="stroke:#181818;stroke-width:1;"/></g><!--link Data Preprocessing\n& Cleaning to Feature Engineering\n& Extraction--><g class="link" data-entity-1="Data Preprocessing\n&amp; Cleaning" data-entity-2="Feature Engineering\n&amp; Extraction" data-source-line="5" data-uid="lnk8" id="link_Data Preprocessing\n&amp; Cleaning_Feature Engineering\n&amp; Extraction"><path d="M244.8154,225.2669 C244.8154,237.4969 244.8154,246.4969 244.8154,258.7869" fill="none" id="Data Preprocessing\n&amp; Cleaning-to-Feature Engineering\n&amp; Extraction" style="stroke:#181818;stroke-width:1;"/><polygon fill="#181818" points="244.8154,264.7869,248.8154,255.7869,244.8154,259.7869,240.8154,255.7869,244.8154,264.7869" style="stroke:#181818;stroke-width:1;"/></g><!--link Feature Engineering\n& Extraction to Model Selection--><g class="link" data-entity-1="Feature Engineering\n&amp; Extraction" data-entity-2="Model Selection" data-source-line="6" data-uid="lnk10" id="link_Feature Engineering\n&amp; Extraction_Model Selection"><path d="M244.8154,313.4369 C244.8154,326.1769 244.8154,335.6369 244.8154,347.0269" fill="none" id="Feature Engineering\n&amp; Extraction-to-Model Selection" style="stroke:#181818;stroke-width:1;"/><polygon fill="#181818" points="244.8154,353.0269,248.8154,344.0269,244.8154,348.0269,240.8154,344.0269,244.8154,353.0269" style="stroke:#181818;stroke-width:1;"/></g><!--link Model Selection to Model Training--><g class="link" data-entity-1="Model Selection" data-entity-2="Model Training" data-source-line="7" data-uid="lnk12" id="link_Model Selection_Model Training"><path d="M244.8154,387.4569 C244.8154,399.2369 244.8154,409.0669 244.8154,420.8269" fill="none" id="Model Selection-to-Model Training" style="stroke:#181818;stroke-width:1;"/><polygon fill="#181818" points="244.8154,426.8269,248.8154,417.8269,244.8154,421.8269,240.8154,417.8269,244.8154,426.8269" style="stroke:#181818;stroke-width:1;"/></g><!--link Model Training to Model Evaluation\n& Validation--><g class="link" data-entity-1="Model Training" data-entity-2="Model Evaluation\n&amp; Validation" data-source-line="8" data-uid="lnk14" id="link_Model Training_Model Evaluation\n&amp; Validation"><path d="M244.8154,461.4569 C244.8154,472.8369 244.8154,482.1769 244.8154,494.8269" fill="none" id="Model Training-to-Model Evaluation\n&amp; Validation" style="stroke:#181818;stroke-width:1;"/><polygon fill="#181818" points="244.8154,500.8269,248.8154,491.8269,244.8154,495.8269,240.8154,491.8269,244.8154,500.8269" style="stroke:#181818;stroke-width:1;"/></g><!--link Model Evaluation\n& Validation to Prediction / Classification--><g class="link" data-entity-1="Model Evaluation\n&amp; Validation" data-entity-2="Prediction / Classification" data-source-line="9" data-uid="lnk16" id="link_Model Evaluation\n&amp; Validation_Prediction / Classification"><path d="M244.8154,549.3069 C244.8154,562.0469 244.8154,571.5069 244.8154,582.9069" fill="none" id="Model Evaluation\n&amp; Validation-to-Prediction / Classification" style="stroke:#181818;stroke-width:1;"/><polygon fill="#181818" points="244.8154,588.9069,248.8154,579.9069,244.8154,583.9069,240.8154,579.9069,244.8154,588.9069" style="stroke:#181818;stroke-width:1;"/></g><!--link Prediction / Classification to end--><g class="link" data-entity-1="Prediction / Classification" data-entity-2="end" data-source-line="10" data-uid="lnk18" id="link_Prediction / Classification_end"><path d="M244.8154,623.3169 C244.8154,635.6769 244.8154,646.2869 244.8154,656.8169" fill="none" id="Prediction / Classification-to-end" style="stroke:#181818;stroke-width:1;"/><polygon fill="#181818" points="244.8154,662.8169,248.8154,653.8169,244.8154,657.8169,240.8154,653.8169,244.8154,662.8169" style="stroke:#181818;stroke-width:1;"/></g><!--SRC=[PO_12i8m44Jl_Ogb1r6X-0TUsdeJX8edBqkobeMuaMGhVhvfqaFHs_2O6MQKrH5qf86V98eEMY-QrCp8A7i150kjmnZvmGOpkWHlACQgskvtq3H7g0TlEANFP1cXGyMwodoMoKwlac0Pxx99TOIIz68w4UeK27ePMOZ2uke_6Z1lM7ndRyd1G8x-wJKWhoeBxD_efZnvxhkXOukhPDfbkPmy_5miZdJl2m00]--></g></svg>