<?xml version="1.0" encoding="UTF-8" standalone="no"?>
<!DOCTYPE svg PUBLIC "-//W3C//DTD SVG 1.1//EN" "http://www.w3.org/Graphics/SVG/1.1/DTD/svg11.dtd">
<!-- Generated by graphviz version 2.40.1 (20161225.0304)
 -->
<!-- Title: TD Pages: 1 -->
<svg xmlns="http://www.w3.org/2000/svg" xmlns:xlink="http://www.w3.org/1999/xlink" width="599pt" height="541pt" viewBox="0.00 0.00 598.50 540.90">
  <g id="graph0" class="graph" transform="scale(1 1) rotate(0) translate(4 536.9)">
    <title>TD</title>
    <g id="a_graph0">
      <a xlink:title="Click the boxes for further information">
        <polygon fill="#ffffff" stroke="transparent" points="-4,4 -4,-536.9 594.5,-536.9 594.5,4 -4,4"/>
      </a>
    </g>
    <!-- 3&#45;&gt;4 -->
    <!-- 3&#45;&gt;5 -->
    <!-- 4&#45;&gt;5 -->
    <g id="edge3" class="edge">
      <title>4-&gt;5</title>
      <path fill="none" stroke="#000000" d="M302.821,-441C311.202,-441 319.6641,-441 328.0915,-441"/>
      <polygon fill="#000000" stroke="#000000" points="328.346,-444.5001 338.346,-441 328.3459,-437.5001 328.346,-444.5001"/>
    </g>
    <!-- 4&#45;&gt;6 -->
    <g id="edge4" class="edge">
      <title>4-&gt;6</title>
      <path fill="none" stroke="#000000" d="M176.5,-413.8638C176.5,-395.5802 176.5,-371.4936 176.5,-352.8598"/>
      <polygon fill="#000000" stroke="#000000" points="180.0001,-352.6036 176.5,-342.6036 173.0001,-352.6037 180.0001,-352.6036"/>
    </g>
    <!-- 5&#45;&gt;7 -->
    <!-- 6&#45;&gt;7 -->
    <g id="edge5" class="edge">
      <title>6-&gt;7</title>
      <path fill="none" stroke="#000000" d="M302.821,-324C311.202,-324 319.6641,-324 328.0915,-324"/>
      <polygon fill="#000000" stroke="#000000" points="328.346,-327.5001 338.346,-324 328.3459,-320.5001 328.346,-327.5001"/>
    </g>
    <!-- 6&#45;&gt;8 -->
    <g id="edge6" class="edge">
      <title>6-&gt;8</title>
      <path fill="none" stroke="#000000" d="M176.5,-305.4582C176.5,-297.9583 176.5,-289.1245 176.5,-280.8217"/>
      <polygon fill="#000000" stroke="#000000" points="180.0001,-280.7292 176.5,-270.7292 173.0001,-280.7292 180.0001,-280.7292"/>
    </g>
    <!-- 7&#45;&gt;9 -->
    <!-- 8&#45;&gt;9 -->
    <g id="edge7" class="edge">
      <title>8-&gt;9</title>
      <path fill="none" stroke="#000000" d="M302.821,-252C311.202,-252 319.6641,-252 328.0915,-252"/>
      <polygon fill="#000000" stroke="#000000" points="328.346,-255.5001 338.346,-252 328.3459,-248.5001 328.346,-255.5001"/>
    </g>
    <!-- 8&#45;&gt;10 -->
    <g id="edge8" class="edge">
      <title>8-&gt;10</title>
      <path fill="none" stroke="#000000" d="M176.5,-233.6198C176.5,-223.5742 176.5,-210.9094 176.5,-199.6023"/>
      <polygon fill="#000000" stroke="#000000" points="180.0001,-199.3074 176.5,-189.3074 173.0001,-199.3074 180.0001,-199.3074"/>
    </g>
    <!-- 9&#45;&gt;11 -->
    <!-- 10&#45;&gt;12 -->
    <g id="edge10" class="edge">
      <title>10-&gt;12</title>
      <path fill="none" stroke="#000000" d="M176.5,-152.6785C176.5,-134.33 176.5,-105.5644 176.5,-82.3791"/>
      <polygon fill="#000000" stroke="#000000" points="180.0001,-82.1765 176.5,-72.1765 173.0001,-82.1766 180.0001,-82.1765"/>
    </g>
    <!-- 10&#45;&gt;C -->
    <g id="edge9" class="edge">
      <title>10-&gt;C</title>
      <path fill="none" stroke="#000000" d="M302.821,-171C311.202,-171 319.6641,-171 328.0915,-171"/>
      <polygon fill="#000000" stroke="#000000" points="328.346,-174.5001 338.346,-171 328.3459,-167.5001 328.346,-174.5001"/>
    </g>
    <!-- identification -->
    <g id="node1" class="node">
      <title>identification</title>
      <g id="a_node1">
        <a xlink:title="Blue identification box">
          <path fill="#bcd2ee" stroke="#bcd2ee" d="M19.3333,-468C19.3333,-468 9.6667,-468 9.6667,-468 4.8333,-468 0,-463.1667 0,-458.3333 0,-458.3333 0,-423.6667 0,-423.6667 0,-418.8333 4.8333,-414 9.6667,-414 9.6667,-414 19.3333,-414 19.3333,-414 24.1667,-414 29,-418.8333 29,-423.6667 29,-423.6667 29,-458.3333 29,-458.3333 29,-463.1667 24.1667,-468 19.3333,-468"/>
          <text text-anchor="middle" x="437.4" y="16.5" font-family="Helvetica,sans-Serif" font-size="12.00" fill="#000000" transform="rotate(-90)">Identification</text>
        </a>
      </g>
    </g>
    <!-- screening -->
    <g id="node2" class="node">
      <title>screening</title>
      <g id="a_node2">
        <a xlink:title="Blue screening box">
          <path fill="#bcd2ee" stroke="#bcd2ee" d="M19.3333,-342C19.3333,-342 9.6667,-342 9.6667,-342 4.8333,-342 0,-337.1667 0,-332.3333 0,-332.3333 0,-153.6667 0,-153.6667 0,-148.8333 4.8333,-144 9.6667,-144 9.6667,-144 19.3333,-144 19.3333,-144 24.1667,-144 29,-148.8333 29,-153.6667 29,-153.6667 29,-332.3333 29,-332.3333 29,-337.1667 24.1667,-342 19.3333,-342"/>
          <text text-anchor="middle" x="239.4" y="16.5" font-family="Helvetica,sans-Serif" font-size="12.00" fill="#000000" transform="rotate(-90)">Screening</text>
        </a>
      </g>
    </g>
    <!-- included -->
    <g id="node3" class="node">
      <title>included</title>
      <g id="a_node3">
        <a xlink:title="Blue included box">
          <path fill="#bcd2ee" stroke="#bcd2ee" d="M19.3333,-90C19.3333,-90 9.6667,-90 9.6667,-90 4.8333,-90 0,-85.1667 0,-80.3333 0,-80.3333 0,-9.6667 0,-9.6667 0,-4.8333 4.8333,0 9.6667,0 9.6667,0 19.3333,0 19.3333,0 24.1667,0 29,-4.8333 29,-9.6667 29,-9.6667 29,-80.3333 29,-80.3333 29,-85.1667 24.1667,-90 19.3333,-90"/>
          <text text-anchor="middle" x="41.4" y="16.5" font-family="Helvetica,sans-Serif" font-size="12.00" fill="#000000" transform="rotate(-90)">Included</text>
        </a>
      </g>
    </g>
    <!-- 3 -->
    <g id="node4" class="node">
      <title>3</title>
      <g id="a_node4">
        <a xlink:title="Yellow title box; Identification of new studies via databases and registers">
          <path fill="#ffc125" stroke="#ffc125" d="M580.8333,-532.9C580.8333,-532.9 60.1667,-532.9 60.1667,-532.9 55.3333,-532.9 50.5,-528.0667 50.5,-523.2333 50.5,-523.2333 50.5,-513.5667 50.5,-513.5667 50.5,-508.7333 55.3333,-503.9 60.1667,-503.9 60.1667,-503.9 580.8333,-503.9 580.8333,-503.9 585.6667,-503.9 590.5,-508.7333 590.5,-513.5667 590.5,-513.5667 590.5,-523.2333 590.5,-523.2333 590.5,-528.0667 585.6667,-532.9 580.8333,-532.9"/>
          <text text-anchor="middle" x="320.5" y="-514.8" font-family="Helvetica,sans-Serif" font-size="12.00" fill="#000000">Identification of new studies via databases and registers</text>
        </a>
      </g>
    </g>
    <!-- 4 -->
    <g id="node5" class="node">
      <title>4</title>
      <g id="a_node5">
        <a xlink:title="Records identified from: Databases and Registers">
          <polygon fill="none" stroke="#000000" points="302.5,-468 50.5,-468 50.5,-414 302.5,-414 302.5,-468"/>
          <text text-anchor="middle" x="176.5" y="-451.8" font-family="Helvetica,sans-Serif" font-size="12.00" fill="#000000">Records identified from:</text>
          <text text-anchor="middle" x="176.5" y="-437.4" font-family="Helvetica,sans-Serif" font-size="12.00" fill="#000000">Databases (n = 1):</text>
          <text text-anchor="middle" x="176.5" y="-423" font-family="Helvetica,sans-Serif" font-size="12.00" fill="#000000">Scopus (n = 538)</text>
        </a>
      </g>
    </g>
    <!-- 5 -->
    <g id="node6" class="node">
      <title>5</title>
      <g id="a_node6">
        <a xlink:title="Duplicate records">
          <polygon fill="none" stroke="#000000" points="590.5,-459.3005 338.5,-459.3005 338.5,-422.6995 590.5,-422.6995 590.5,-459.3005"/>
          <text text-anchor="middle" x="464.5" y="-444.6" font-family="Helvetica,sans-Serif" font-size="12.00" fill="#000000">Records removed before screening:</text>
          <text text-anchor="middle" x="464.5" y="-430.2" font-family="Helvetica,sans-Serif" font-size="12.00" fill="#000000">(n = 0)</text>
        </a>
      </g>
    </g>
    <!-- 6 -->
    <g id="node7" class="node">
      <title>6</title>
      <g id="a_node7">
        <a xlink:title="Records screened (databases and registers)">
          <polygon fill="none" stroke="#000000" points="302.5,-342.3005 50.5,-342.3005 50.5,-305.6995 302.5,-305.6995 302.5,-342.3005"/>
          <text text-anchor="middle" x="176.5" y="-327.6" font-family="Helvetica,sans-Serif" font-size="12.00" fill="#000000">Records screened</text>
          <text text-anchor="middle" x="176.5" y="-313.2" font-family="Helvetica,sans-Serif" font-size="12.00" fill="#000000">(n = 538)</text>
        </a>
      </g>
    </g>
    <!-- 7 -->
    <g id="node8" class="node">
      <title>7</title>
      <g id="a_node8">
        <a xlink:title="Records excluded (databases and registers)">
          <polygon fill="none" stroke="#000000" points="590.5,-342.3005 338.5,-342.3005 338.5,-305.6995 590.5,-305.6995 590.5,-342.3005"/>
          <text text-anchor="middle" x="464.5" y="-327.6" font-family="Helvetica,sans-Serif" font-size="12.00" fill="#000000">Records excluded</text>
          <text text-anchor="middle" x="464.5" y="-313.2" font-family="Helvetica,sans-Serif" font-size="12.00" fill="#000000">(n = 447)</text>
        </a>
      </g>
    </g>
    <!-- 8 -->
    <g id="node9" class="node">
      <title>8</title>
      <g id="a_node9">
        <a xlink:title="Reports sought for retrieval (databases and registers)">
          <polygon fill="none" stroke="#000000" points="302.5,-270.3005 50.5,-270.3005 50.5,-233.6995 302.5,-233.6995 302.5,-270.3005"/>
          <text text-anchor="middle" x="176.5" y="-255.6" font-family="Helvetica,sans-Serif" font-size="12.00" fill="#000000">Reports sought for retrieval</text>
          <text text-anchor="middle" x="176.5" y="-241.2" font-family="Helvetica,sans-Serif" font-size="12.00" fill="#000000">(n = 91)</text>
        </a>
      </g>
    </g>
    <!-- 9 -->
    <g id="node10" class="node">
      <title>9</title>
      <g id="a_node10">
        <a xlink:title="Reports not retrieved (databases and registers)">
          <polygon fill="none" stroke="#000000" points="590.5,-270.3005 338.5,-270.3005 338.5,-233.6995 590.5,-233.6995 590.5,-270.3005"/>
          <text text-anchor="middle" x="464.5" y="-255.6" font-family="Helvetica,sans-Serif" font-size="12.00" fill="#000000">Reports not retrieved</text>
          <text text-anchor="middle" x="464.5" y="-241.2" font-family="Helvetica,sans-Serif" font-size="12.00" fill="#000000">(n = 50)</text>
        </a>
      </g>
    </g>
    <!-- 10 -->
    <g id="node11" class="node">
      <title>10</title>
      <g id="a_node11">
        <a xlink:title="Reports assessed for eligibility (databases and registers)">
          <polygon fill="none" stroke="#000000" points="302.5,-189.3005 50.5,-189.3005 50.5,-152.6995 302.5,-152.6995 302.5,-189.3005"/>
          <text text-anchor="middle" x="176.5" y="-174.6" font-family="Helvetica,sans-Serif" font-size="12.00" fill="#000000">Reports assessed for eligibility</text>
          <text text-anchor="middle" x="176.5" y="-160.2" font-family="Helvetica,sans-Serif" font-size="12.00" fill="#000000">(n = 41)</text>
        </a>
      </g>
    </g>
    <!-- 11 -->
    <g id="node12" class="node">
      <title>11</title>
      <g id="a_node12">
        <a xlink:title="Reports excluded (databases and registers)">
          <polygon fill="#ffffff" stroke="#000000" points="590.5,-196.7004 338.5,-196.7004 338.5,-145.2996 590.5,-145.2996 590.5,-196.7004"/>
          <text text-anchor="middle" x="464.5" y="-181.8" font-family="Helvetica,sans-Serif" font-size="12.00" fill="#000000">Reports excluded:</text>
          <text text-anchor="middle" x="464.5" y="-167.4" font-family="Helvetica,sans-Serif" font-size="12.00" fill="#000000">Does not focus on dominant</text>
          <text text-anchor="middle" x="464.5" y="-153" font-family="Helvetica,sans-Serif" font-size="12.00" fill="#000000">detrimental content (n = 28)</text>
        </a>
      </g>
    </g>
    <!-- 12 -->
    <g id="node13" class="node">
      <title>12</title>
      <g id="a_node13">
        <a xlink:title="New studies included in review">
          <polygon fill="none" stroke="#000000" points="302.5,-72 50.5,-72 50.5,-18 302.5,-18 302.5,-72"/>
          <text text-anchor="middle" x="176.5" y="-48.6" font-family="Helvetica,sans-Serif" font-size="12.00" fill="#000000">New studies included in review</text>
          <text text-anchor="middle" x="176.5" y="-34.2" font-family="Helvetica,sans-Serif" font-size="12.00" fill="#000000">(n = 13)</text>
        </a>
      </g>
    </g>
    <!-- C -->
  </g>
</svg>
